<svg width="500" height="500" viewBox="0 0 500 500" fill="none" xmlns="http://www.w3.org/2000/svg">
<path d="M18 253.087C18 124.957 120.13 19.3467 248.26 19.3467V19.3467C376.39 19.3467 482 121.477 482 249.607V249.607C482 377.737 379.87 483.347 251.74 483.347V483.347C123.61 483.347 18 381.217 18 253.087V253.087Z" fill="#FEFEFE"/>
<path d="M394.563 64.7695C395.748 65.7185 396.933 66.6675 398.154 67.6452C421.141 86.3929 439.951 108.203 454.372 134.156C454.807 134.919 455.242 135.682 455.69 136.468C466.175 154.916 473.899 174.697 479 195.31C479.322 196.562 479.644 197.814 479.976 199.104C486.822 227.986 488.567 262.778 481.345 291.745C458.125 291.745 434.905 291.745 410.981 291.745C410.981 249.443 410.981 207.141 410.981 163.557C390.083 163.557 369.184 163.557 347.653 163.557C347.653 183.737 347.653 203.918 347.653 224.711C331.012 224.711 314.37 224.711 297.225 224.711C297.225 204.53 297.225 184.349 297.225 163.557C276.327 163.557 255.428 163.557 233.897 163.557C233.897 204.694 233.897 245.832 233.897 288.217C213.773 288.217 193.648 288.217 172.914 288.217C172.914 247.079 172.914 205.941 172.914 163.557C152.403 163.557 131.892 163.557 110.759 163.557C110.759 212.844 110.759 262.132 110.759 312.913C99.9229 312.913 89.0867 312.913 77.9222 312.913C77.9222 344.737 77.9222 376.561 77.9222 409.349C56.8627 388.23 42.2262 362.781 31.0125 335.258C30.6845 334.457 30.3564 333.656 30.0185 332.831C8.15476 278.323 11.0029 213.606 33.1084 159.77C50.2414 120.393 77.2214 85.3976 111.932 60.0653C112.593 59.5794 113.253 59.0936 113.934 58.593C196.429 -1.28686 314.889 0.286806 394.563 64.7695Z" fill="#000001"/>
<path d="M297.224 268.224C313.865 268.224 330.507 268.224 347.652 268.224C347.652 289.181 347.652 310.138 347.652 331.73C387.901 331.73 428.149 331.73 469.617 331.73C463.307 363.372 439.44 393.344 417.486 415.72C415.876 417.37 414.303 419.056 412.735 420.746C400.052 434.153 384.685 444.988 368.637 453.967C366.382 455.233 364.151 456.537 361.917 457.842C341.199 469.659 318.043 476.967 294.879 482.263C293.698 482.537 292.517 482.812 291.301 483.094C282.043 485.006 272.639 485.481 263.215 485.791C261.679 485.841 261.679 485.841 260.112 485.893C214.185 487.161 168.968 477.213 129.522 452.862C127.177 450.51 127.177 450.51 126.888 448.365C126.891 447.055 126.891 447.055 126.895 445.718C126.891 444.717 126.888 443.716 126.885 442.685C126.893 441.581 126.902 440.477 126.91 439.339C126.91 438.161 126.91 436.984 126.909 435.77C126.911 431.946 126.929 428.122 126.948 424.297C126.951 421.941 126.953 419.585 126.955 417.228C126.967 408.476 127 399.725 127.03 390.973C127.078 371.423 127.127 351.872 127.177 331.73C183.292 331.73 239.408 331.73 297.224 331.73C297.224 310.773 297.224 289.816 297.224 268.224Z" fill="black"/>
<path d="M233.896 163.556C235.445 163.556 236.993 163.556 238.587 163.556C238.587 219.054 238.587 274.551 238.587 331.73C237.039 331.73 235.491 331.73 233.896 331.73C233.896 276.233 233.896 220.735 233.896 163.556Z" fill="#02F7F7"/>
<path d="M406.29 163.556C407.838 163.556 409.386 163.556 410.981 163.556C410.981 205.858 410.981 248.161 410.981 291.745C409.433 291.745 407.885 291.745 406.29 291.745C406.29 249.442 406.29 207.14 406.29 163.556Z" fill="#E900E9"/>
<path d="M110.758 163.556C111.919 163.556 113.08 163.556 114.277 163.556C114.277 212.456 114.277 261.356 114.277 311.737C113.116 311.737 111.954 311.737 110.758 311.737C110.758 262.838 110.758 213.938 110.758 163.556Z" fill="#00FFFF"/>
<path d="M77.9223 138.86C103.078 138.86 128.233 138.86 154.15 138.86C154.15 140.8 154.15 142.741 154.15 144.74C128.608 144.74 103.066 144.74 76.7495 144.74C77.1365 142.799 77.5235 140.859 77.9223 138.86Z" fill="#CACACA"/>
<path d="M169.396 163.556C170.557 163.556 171.718 163.556 172.914 163.556C172.914 204.694 172.914 245.832 172.914 288.216C171.753 288.216 170.592 288.216 169.396 288.216C169.396 247.079 169.396 205.941 169.396 163.556Z" fill="#FF00FF"/>
<path d="M347.653 268.224C349.201 268.224 350.749 268.224 352.344 268.224C352.344 289.181 352.344 310.138 352.344 331.73C350.796 331.73 349.248 331.73 347.653 331.73C347.653 310.773 347.653 289.816 347.653 268.224Z" fill="#0DFFFF"/>
<path d="M292.534 268.224C294.082 268.224 295.63 268.224 297.225 268.224C297.225 289.181 297.225 310.138 297.225 331.73C295.677 331.73 294.129 331.73 292.534 331.73C292.534 310.773 292.534 289.816 292.534 268.224Z" fill="#FD11FD"/>
<path d="M347.653 163.556C349.201 163.556 350.749 163.556 352.344 163.556C352.344 183.737 352.344 203.918 352.344 224.71C350.796 224.71 349.248 224.71 347.653 224.71C347.653 204.53 347.653 184.349 347.653 163.556Z" fill="#0DFFFF"/>
<path d="M292.534 163.556C294.082 163.556 295.63 163.556 297.225 163.556C297.225 183.737 297.225 203.918 297.225 224.71C295.677 224.71 294.129 224.71 292.534 224.71C292.534 204.53 292.534 184.349 292.534 163.556Z" fill="#FD12FD"/>
</svg>
