<svg width="500" height="500" viewBox="0 0 500 500" fill="none" xmlns="http://www.w3.org/2000/svg">
<path d="M52 251.477C52 142.677 138.722 53 247.523 53V53C356.323 53 446 139.722 446 248.523V248.523C446 357.323 359.278 447 250.477 447V447C141.677 447 52 360.278 52 251.477V251.477Z" fill="#FEFEFE"/>
<path d="M371.693 91.9475C372.699 92.7534 373.706 93.5594 374.743 94.3898C394.264 110.311 410.239 128.834 422.487 150.874C422.856 151.522 423.225 152.17 423.606 152.838C432.51 168.505 439.07 185.304 443.402 202.81C443.675 203.873 443.949 204.937 444.231 206.032C450.045 230.561 451.527 260.107 445.394 284.708C425.674 284.708 405.954 284.708 385.636 284.708C385.636 248.782 385.636 212.857 385.636 175.843C367.888 175.843 350.14 175.843 331.854 175.843C331.854 192.982 331.854 210.121 331.854 227.779C317.722 227.779 303.589 227.779 289.028 227.779C289.028 210.64 289.028 193.501 289.028 175.843C271.28 175.843 253.532 175.843 235.246 175.843C235.246 210.78 235.246 245.716 235.246 281.712C218.156 281.712 201.065 281.712 183.457 281.712C183.457 246.775 183.457 211.838 183.457 175.843C166.037 175.843 148.618 175.843 130.671 175.843C130.671 217.701 130.671 259.559 130.671 302.685C121.468 302.685 112.265 302.685 102.784 302.685C102.784 329.712 102.784 356.738 102.784 384.584C84.8988 366.648 72.4687 345.036 62.9454 321.662C62.6668 320.982 62.3882 320.301 62.1012 319.6C43.5333 273.309 45.9521 218.348 64.7253 172.627C79.2756 139.186 102.189 109.466 131.667 87.9524C132.228 87.5398 132.789 87.1272 133.367 86.7021C203.426 35.8487 304.029 37.1851 371.693 91.9475Z" fill="#000001"/>
<path d="M289.028 264.733C303.16 264.733 317.293 264.733 331.854 264.733C331.854 282.531 331.854 300.328 331.854 318.666C366.035 318.666 400.217 318.666 435.434 318.666C430.074 345.538 409.806 370.992 391.161 389.994C389.794 391.396 388.457 392.828 387.126 394.263C376.355 405.649 363.305 414.85 349.675 422.476C347.76 423.552 345.865 424.659 343.969 425.767C326.373 435.803 306.708 442.009 287.036 446.507C286.033 446.74 285.03 446.973 283.997 447.213C276.135 448.836 268.149 449.24 260.145 449.503C258.84 449.546 258.84 449.546 257.51 449.59C218.506 450.666 180.106 442.218 146.605 421.538C144.614 419.54 144.614 419.54 144.368 417.719C144.371 416.606 144.371 416.606 144.374 415.47C144.371 414.621 144.369 413.771 144.366 412.895C144.373 411.958 144.38 411.02 144.387 410.053C144.387 409.053 144.387 408.053 144.387 407.023C144.388 403.775 144.403 400.527 144.419 397.279C144.422 395.278 144.424 393.277 144.425 391.276C144.436 383.843 144.463 376.411 144.489 368.978C144.53 352.375 144.571 335.772 144.614 318.666C192.27 318.666 239.927 318.666 289.028 318.666C289.028 300.868 289.028 283.07 289.028 264.733Z" fill="black"/>
<path d="M235.246 175.843C236.561 175.843 237.875 175.843 239.23 175.843C239.23 222.974 239.23 270.106 239.23 318.665C237.915 318.665 236.601 318.665 235.246 318.665C235.246 271.534 235.246 224.403 235.246 175.843Z" fill="#02F7F7"/>
<path d="M381.652 175.843C382.967 175.843 384.282 175.843 385.636 175.843C385.636 211.768 385.636 247.694 385.636 284.708C384.322 284.708 383.007 284.708 381.652 284.708C381.652 248.782 381.652 212.857 381.652 175.843Z" fill="#E900E9"/>
<path d="M130.67 175.843C131.656 175.843 132.642 175.843 133.658 175.843C133.658 217.371 133.658 258.9 133.658 301.687C132.672 301.687 131.686 301.687 130.67 301.687C130.67 260.158 130.67 218.63 130.67 175.843Z" fill="#00FFFF"/>
<path d="M102.784 154.869C124.147 154.869 145.51 154.869 167.521 154.869C167.521 156.517 167.521 158.165 167.521 159.863C145.829 159.863 124.137 159.863 101.788 159.863C102.116 158.215 102.445 156.567 102.784 154.869Z" fill="#CACACA"/>
<path d="M180.468 175.843C181.454 175.843 182.44 175.843 183.456 175.843C183.456 210.78 183.456 245.716 183.456 281.711C182.47 281.711 181.484 281.711 180.468 281.711C180.468 246.775 180.468 211.838 180.468 175.843Z" fill="#FF00FF"/>
<path d="M331.854 264.733C333.169 264.733 334.484 264.733 335.838 264.733C335.838 282.531 335.838 300.328 335.838 318.666C334.524 318.666 333.209 318.666 331.854 318.666C331.854 300.868 331.854 283.07 331.854 264.733Z" fill="#0DFFFF"/>
<path d="M285.044 264.733C286.359 264.733 287.673 264.733 289.028 264.733C289.028 282.531 289.028 300.328 289.028 318.666C287.713 318.666 286.398 318.666 285.044 318.666C285.044 300.868 285.044 283.07 285.044 264.733Z" fill="#FD11FD"/>
<path d="M331.854 175.843C333.169 175.843 334.484 175.843 335.838 175.843C335.838 192.982 335.838 210.12 335.838 227.778C334.524 227.778 333.209 227.778 331.854 227.778C331.854 210.64 331.854 193.501 331.854 175.843Z" fill="#0DFFFF"/>
<path d="M285.044 175.843C286.359 175.843 287.673 175.843 289.028 175.843C289.028 192.982 289.028 210.12 289.028 227.778C287.713 227.778 286.398 227.778 285.044 227.778C285.044 210.64 285.044 193.501 285.044 175.843Z" fill="#FD12FD"/>
</svg>
